<svg xmlns="http://www.w3.org/2000/svg" viewBox="0 0 1083.83 146.4">
    <defs>
        <style>.a{fill:#d3d6d7;}.b{fill:none;stroke:#d3d6d7;stroke-miterlimit:10;stroke-width:8px;}</style>
    </defs>

    <path class="a"
          d="M946.62,105.18c3.16-7.83,2.85-16.25,5.26-24.11.6-1.95,0-2.74-2.17-3.22-3.94-.89-7.76-2.34-13.46-4.13,3.65-1.31,5.56-2.1,7.53-2.68,8.7-2.57,8.67-2.54,6.43-11.59-1.05-4.21-2.32-8.45-2.58-12.73-.07-1.18-2.77-4.38,1-4.73,2.43-.22,5.32-1.37,7,2.35,2.66,5.85,6.13,11.33,8.89,17.14,1.48,3.11,3.24,4.38,6.78,4.09,10.34-.84,20.71-2.09,31.1-1.44,5.75.36,6-3,5.28-6.92-1.8-9.68-4-19.29-5.8-28.95-1.44-7.61-2.8-15.24-3.72-22.91-.18-1.51-3.27-3.92.32-5.09,3-1,4.48.93,5.81,3.46,3,5.7,6.53,11.12,9.43,16.86,1.78,3.52,4,5.23,8,4.62,2.82-.42,6.06-.26,6.51,3.38.35,2.85,1.9,6.82-3,7.8-1.45.29-2.13.72-1.16,2.08,1.52,2.14,1.62,5.52,4.92,6.1a23.78,23.78,0,0,0,4.85.06c3.2-.11,6.18-.17,6,4.45-.14,3.62,1,7.9-5.1,7,.87,4.52,3.34,5.57,7.5,5.62,9.9.11,20-.36,29.55,2.63,4.84,1.5,12.06,2.78,12,8.59s-7.24,6.91-12,8.67c-8.89,3.24-18.29,1.74-27.48,2.15-2.24.1-4.74-.73-6.57,1.16-1.29,1.32-6.6,2.24-.44,4.83,3.22,1.36,2.44,5.29,1.92,8.18-.55,3.12-3.41,2.82-5.61,2.45-4.66-.77-7.48,1.14-9,5.38-.41,1.16-1.18,2.2,1.08,2.92,4.68,1.5,3.07,5.81,2.8,8.9-.34,3.89-4,2.41-6.16,2.2-4-.4-5.78,1.6-7.46,4.66-3.43,6.26-7.15,12.36-10.64,18.59-1.42,2.53-3.46,4.12-6.15,3.05-3.25-1.28-.3-3.56,0-5.13,2.84-15.07,6-30.09,9-45.12.27-1.35.47-2.71.68-4.07.85-5.54.1-8.6-7.14-8.45-9.4.18-18.85-1.5-28.27-2.5-3.69-.39-6,.8-7.56,4.35-2.36,5.22-5.64,10-7.93,15.27C954.9,104.89,952.36,107.14,946.62,105.18Z"/>
    <line class="b" x1="918.72" y1="73.2" y2="73.2"/>
</svg>