<svg xmlns="http://www.w3.org/2000/svg" viewBox="0 0 174.12 175.48">
    <defs>
        <style>.a3{fill:#049bdc;}</style>
    </defs>
    <path class="a3"
          d="M0,87.68C0,39.27,39-.14,86.84,0a87.74,87.74,0,0,1,0,175.48C39,175.7,0,136.1,0,87.68Zm70.11,6.16a2.7,2.7,0,0,0-1.86,2l-.09.11c-1.7.13-2.27,1.2-2.26,2.73l.06-.07c-1.29,1.28-2.61,2.53-3.86,3.84-1.68,1.75-3,4.16-6,3.53l-2-.22a14.53,14.53,0,0,0-6-1.66l-3-.4c-3-1.68-4.47.63-5.51,2.52S40.74,108.42,42,109c.26,1,1.11.79,1.81.87,1.64,2,4.09,2.64,6.28,3.71a.7.7,0,0,0,.81.33,5.3,5.3,0,0,0,3.17,1.94h0c.48,2.89-3,4.65-2.4,7.68,3,.1,5-4,8.29-1.55l0,0a6.65,6.65,0,0,0,2.12,4c0,.81.09,1.6,1,1.94a12.92,12.92,0,0,0,2.9,5.31.54.54,0,0,0,.27.67c1.27,3.78,2.55,2,3.83,0l0,0c3.82-2.66.48-5.36,0-8.05l-.35-3c-2-4.82-.48-8.39,3.78-11.1a8.27,8.27,0,0,0,1.57-1.83l3-2.13c1.25-.11.79-1.19,1.06-1.86l1.1-.48a9.5,9.5,0,0,0,3.86-3.52h0a28.25,28.25,0,0,0,6.76-6.1l.15-.08,3.06.16h0l2,2.92,0,.07A1.07,1.07,0,0,0,97,100l-.13-.1a15.55,15.55,0,0,0,3.33,5.7l.06.12c1,2.21,1.86,4.51,3.8,6.12h0a5.17,5.17,0,0,0,1.94,3.38c4.72,9.33,10.51,18,15.77,27.06,1.22,2.09,2,2.32,3.49.23,2.77-4,4.1-7.81,2.57-12.94-4.76-15.93-8.86-32-13.46-48-1.21-4.21-.64-7.12,3-9.88a93.2,93.2,0,0,0,11-10c5.73-6,10.73-12.46,10.23-21.53-.16-3-1.07-4.45-4.41-4.42a25.21,25.21,0,0,0-18.26,7.89C110.47,49,105.13,54.45,100,60.09c-1.38,1.53-2.48,1.18-3.92.78-16.82-4.64-33.72-9-50.43-14.07-5.13-1.54-8.91-.45-13,2.33-2.42,1.66-1.91,2.61.12,3.81l47.12,27.9.1,1.93,0,0a6.8,6.8,0,0,0-2.84,3.09L76.15,87A14.16,14.16,0,0,0,72,91.75h0a2.85,2.85,0,0,0-1.9,2.06Z"/>
</svg>